<svg fill="#231815" role="img" xmlns="http://www.w3.org/2000/svg" version="1.1" viewBox="0 0 300 80"><title>70mai</title><path d="M75.68,73.67c-16.24,0-29.44-13.21-29.44-29.44s13.21-29.44,29.44-29.44,29.44,13.21,29.44,29.44-13.21,29.44-29.44,29.44ZM75.68,22.32c-12.08,0-21.9,9.83-21.9,21.9s9.83,21.9,21.9,21.9,21.9-9.83,21.9-21.9-9.83-21.9-21.9-21.9Z"></path><path d="M237.31,73.67c-16.24,0-29.44-13.21-29.44-29.44s13.21-29.44,29.44-29.44c8.37,0,16.34,3.62,21.91,9.83v-9.04h7.54v57.29h-7.54v-9.03c-5.56,6.21-13.54,9.83-21.91,9.83ZM237.31,22.32c-12.08,0-21.9,9.83-21.9,21.9s9.83,21.9,21.9,21.9,21.91-9.83,21.91-21.9-9.83-21.9-21.91-21.9Z"></path><rect x="275.93" y="15.57" width="7.54" height="57.29"></rect><rect x="275.93" width="7.54" height="8.31"></rect><path d="M194.09,72.87v-33.69c0-9.19-7.48-16.67-16.67-16.67s-16.67,7.48-16.67,16.67v33.69h-7.54v-33.69c0-9.19-7.48-16.67-16.67-16.67s-16.67,7.48-16.67,16.67v33.69h-7.54V15.49h7.54v6.14c4.48-4.27,10.41-6.67,16.67-6.67,8.35,0,16.01,4.27,20.44,11.27,4.43-7,12.09-11.27,20.44-11.27,13.35,0,24.21,10.86,24.21,24.21v33.69h-7.54Z"></path><polygon points="0 72.87 35.08 23.07 7.26 23.07 12.51 15.53 49.61 15.53 9.22 72.87 0 72.87"></polygon></svg>
